<?xml version="1.0" encoding="UTF-8"?>
<svg id="Layer_2" data-name="Layer 2" xmlns="http://www.w3.org/2000/svg" viewBox="0 0 632.78 505.32">
  <defs>
    <style>
      .cls-1 {
        fill: #f4f1e9;
      }

      .cls-1, .cls-2 {
        stroke-width: 0px;
      }

      .cls-2 {
        fill: #088a8a;
      }
    </style>
  </defs>
  <g id="Layer_1-2" data-name="Layer 1">
    <g>
      <g>
        <path class="cls-2" d="m151,503.88h-60.92v-7.33c5.37-.34,9.83-1.03,13.37-2.07,3.55-1.03,5.32-2.31,5.32-3.82,0-.62-.07-1.38-.21-2.27-.14-.89-.34-1.69-.62-2.38l-12.14-32.84h-51.45c-1.93,4.82-3.5,9.02-4.71,12.6-1.21,3.58-2.29,6.89-3.26,9.91-.9,2.96-1.52,5.37-1.86,7.23-.34,1.86-.52,3.37-.52,4.54,0,2.75,2.17,4.89,6.51,6.4,4.34,1.52,9.23,2.41,14.67,2.69v7.33H0v-7.33c1.79-.14,4.03-.53,6.71-1.19,2.69-.65,4.89-1.53,6.61-2.63,2.75-1.86,4.89-3.8,6.4-5.84,1.51-2.03,3-4.84,4.44-8.42,7.37-18.38,15.49-39.04,24.37-61.97,8.88-22.93,16.8-43.34,23.75-61.25h8.26l48.85,126.42c1.03,2.69,2.2,4.85,3.51,6.51,1.31,1.65,3.13,3.27,5.47,4.85,1.58.97,3.65,1.77,6.2,2.43,2.55.66,4.68,1.02,6.4,1.08v7.33Zm-39.14-169.9H41v-13.22h70.85v13.22Zm-19.82,109.99l-22.2-56.87-21.88,56.87h44.08Z"/>
        <path class="cls-2" d="m348.53,503.88h-64.76v-7.33c2.34-.07,5.35-.31,9.04-.72,3.68-.41,6.21-1,7.59-1.76,2.13-1.31,3.7-2.8,4.7-4.49,1-1.69,1.5-3.8,1.5-6.35v-106.59h-1.55l-49.99,124.87h-5.16l-47.61-127.45h-1.34v87.48c0,8.47.53,14.91,1.6,19.31,1.07,4.41,2.7,7.58,4.91,9.5,1.51,1.45,4.65,2.82,9.4,4.13,4.75,1.31,7.85,2,9.3,2.07v7.33h-59.18v-7.33c3.1-.27,6.35-.79,9.76-1.55,3.41-.76,6.04-1.89,7.9-3.41,2.41-1.93,4.06-4.89,4.96-8.88.89-3.99,1.34-10.67,1.34-20.04v-74.98c0-4.34-.52-7.88-1.55-10.64-1.03-2.75-2.51-4.99-4.44-6.71-2.13-1.86-4.75-3.24-7.85-4.13-3.1-.89-6.16-1.41-9.19-1.55v-7.33h49.97l41.98,110.01,35.84-92.02c1.31-3.38,2.42-6.91,3.35-10.59.93-3.69,1.43-6.15,1.5-7.39h47.79v7.33c-1.93.07-4.39.38-7.38.93-3,.55-5.18,1.07-6.56,1.55-2.34.83-3.92,2.2-4.75,4.13-.83,1.93-1.24,4.03-1.24,6.3v105.66c0,2.41.41,4.44,1.24,6.09.83,1.65,2.41,3.1,4.75,4.34,1.24.69,3.44,1.33,6.61,1.91,3.17.59,5.68.91,7.54.98v7.33Z"/>
        <path class="cls-2" d="m448.16,503.88h-66v-7.33c1.86-.14,4.54-.34,8.06-.62,3.51-.27,5.99-.69,7.44-1.24,2.27-.89,3.92-2.12,4.96-3.67,1.03-1.55,1.55-3.7,1.55-6.46v-106.17c0-2.41-.38-4.42-1.14-6.04-.76-1.62-2.55-2.98-5.37-4.08-2.07-.83-4.67-1.6-7.8-2.32-3.13-.72-5.7-1.15-7.69-1.29v-7.33h66v7.33c-2.13.07-4.68.33-7.64.77-2.96.45-5.54,1.02-7.75,1.7-2.62.83-4.37,2.17-5.27,4.03-.9,1.86-1.34,3.92-1.34,6.2v106.07c0,2.27.5,4.29,1.5,6.04,1,1.76,2.7,3.15,5.11,4.18,1.45.55,3.8,1.15,7.07,1.81,3.27.66,6.04,1.02,8.31,1.08v7.33Z"/>
        <path class="cls-2" d="m632.78,364.65c-1.93.07-4.89.62-8.88,1.65-3.99,1.03-6.85,2.1-8.57,3.2-2.48,1.72-4.15,5.03-5.01,9.91-.86,4.89-1.29,11.09-1.29,18.59v107.31h-8.99l-88.82-119.91v75.6c0,8.47.53,14.98,1.6,19.52,1.07,4.54,2.7,7.78,4.91,9.71,1.58,1.52,4.85,2.93,9.81,4.23,4.96,1.31,8.23,2,9.81,2.07v7.33h-60.11v-7.33c1.86-.14,4.99-.81,9.4-2.01,4.41-1.2,7.16-2.29,8.26-3.25,2.41-1.93,4.06-4.87,4.96-8.83.89-3.96,1.34-10.72,1.34-20.29v-72.19c0-3.17-.55-6.33-1.65-9.5-1.1-3.17-2.58-5.61-4.44-7.33-2.48-2.27-5.84-4.22-10.07-5.84-4.23-1.62-7.66-2.49-10.28-2.63v-7.33h41.87l82.38,111.73v-69.7c0-8.54-.55-15.09-1.65-19.67-1.1-4.58-2.69-7.62-4.75-9.14-1.93-1.31-5.08-2.58-9.45-3.82-4.37-1.24-7.69-1.93-9.97-2.07v-7.33h59.59v7.33Z"/>
      </g>
      <g>
        <rect class="cls-2" x="177.41" width="277.96" height="277.96" rx="27" ry="27"/>
        <g>
          <path class="cls-1" d="m423.97,207.52l-90.52-156.78c-1.79-3.1-4.38-5.66-7.49-7.38-2.91-1.61-6.22-2.47-9.56-2.47s-6.65.85-9.56,2.47c-3.11,1.73-5.7,4.28-7.49,7.38l-90.52,156.78c-1.79,3.11-2.71,6.63-2.64,10.18.06,3.33.97,6.62,2.64,9.51,1.67,2.9,4.07,5.33,6.92,7.05,3.05,1.83,6.55,2.8,10.14,2.8h34.65v-13.13h-34.65c-5.05,0-8.21-5.47-5.69-9.85l90.52-156.78c1.26-2.19,3.47-3.28,5.69-3.28s4.42,1.1,5.69,3.28l90.52,156.78c2.53,4.38-.63,9.85-5.69,9.85h-34.65v13.13h34.65c3.58,0,7.09-.97,10.14-2.8,2.85-1.71,5.24-4.15,6.92-7.05,1.67-2.9,2.59-6.19,2.64-9.51.06-3.56-.85-7.08-2.64-10.18Z"/>
          <g>
            <path class="cls-1" d="m293.91,165.7v71.3h-22.19v-71.3c0-1.41,1.15-2.56,2.56-2.56h17.07c1.41,0,2.56,1.15,2.56,2.56Z"/>
            <path class="cls-1" d="m361.06,183.89v53.12h-22.19v-53.12c0-1.41,1.15-2.56,2.56-2.56h17.07c1.41,0,2.56,1.15,2.56,2.56Z"/>
            <path class="cls-1" d="m327.49,137.79v99.21h-22.19v-99.21c0-1.41,1.15-2.56,2.56-2.56h17.07c1.41,0,2.56,1.15,2.56,2.56Z"/>
          </g>
        </g>
      </g>
    </g>
  </g>
</svg>